{
  "accessors": [
    {
      "bufferView": 1,
      "componentType": 5126,
      "count": 4922,
      "max": [
        2.217416286468506,
        4.4912238121032715,
        1.251143217086792
      ],
      "min": [
        -2.5335278511047363,
        -1.419858455657959,
        -1.2511433362960815
      ],
      "type": "VEC3"
    },
    {
      "bufferView": 1,
      "byteOffset": 59064,
      "componentType": 5126,
      "count": 4922,
      "type": "VEC3"
    },
    {
      "bufferView": 1,
      "byteOffset": 118128,
      "componentType": 5126,
      "count": 4922,
      "max": [
        0.04978513717651367,
        0.11275529861450195,
        0.00019097328186035156
      ],
      "min": [
        -0.09475326538085938,
        -0.17749309539794922,
        -0.00016529113054275513
      ],
      "type": "VEC3"
    },
    {
      "bufferView": 1,
      "byteOffset": 177192,
      "componentType": 5126,
      "count": 4922,
      "max": [
        0.09068870544433594,
        0.19048500061035156,
        0.00019097328186035156
      ],
      "min": [
        -0.1871967315673828,
        -0.3184628486633301,
        -0.00016529113054275513
      ],
      "type": "VEC3"
    },
    {
      "bufferView": 1,
      "byteOffset": 236256,
      "componentType": 5126,
      "count": 4922,
      "max": [
        0.11934089660644531,
        0.2393026351928711,
        0.00019097328186035156
      ],
      "min": [
        -0.2617607116699219,
        -0.4200000762939453,
        -0.00016529113054275513
      ],
      "type": "VEC3"
    },
    {
      "bufferView": 1,
      "byteOffset": 295320,
      "componentType": 5126,
      "count": 4922,
      "max": [
        0.13751697540283203,
        0.2701609134674072,
        0.00019097328186035156
      ],
      "min": [
        -0.29544830322265625,
        -0.5100002288818359,
        -0.00016529113054275513
      ],
      "type": "VEC3"
    },
    {
      "bufferView": 1,
      "byteOffset": 354384,
      "componentType": 5126,
      "count": 4922,
      "max": [
        0.1490640640258789,
        0.5113091468811035,
        0.00019097328186035156
      ],
      "min": [
        -0.34679651260375977,
        -0.6112766265869141,
        -0.00016529113054275513
      ],
      "type": "VEC3"
    },
    {
      "bufferView": 1,
      "byteOffset": 413448,
      "componentType": 5126,
      "count": 4922,
      "max": [
        0.20230388641357422,
        0.7447023391723633,
        0.00019097328186035156
      ],
      "min": [
        -0.40274810791015625,
        -0.7008171081542969,
        -0.00016529113054275513
      ],
      "type": "VEC3"
    },
    {
      "bufferView": 1,
      "byteOffset": 472512,
      "componentType": 5126,
      "count": 4922,
      "max": [
        0.24267005920410156,
        0.9292213916778564,
        0.00019097328186035156
      ],
      "min": [
        -0.43803834915161133,
        -0.7548456192016602,
        -0.00016529113054275513
      ],
      "type": "VEC3"
    },
    {
      "bufferView": 1,
      "byteOffset": 531576,
      "componentType": 5126,
      "count": 4922,
      "max": [
        0.2591094970703125,
        1.0557773113250732,
        0.00019097328186035156
      ],
      "min": [
        -0.4603543281555176,
        -0.7391476631164551,
        -0.00016529113054275513
      ],
      "type": "VEC3"
    },
    {
      "bufferView": 1,
      "byteOffset": 590640,
      "componentType": 5126,
      "count": 4922,
      "max": [
        0.2634620666503906,
        1.1350014209747314,
        0.00019097328186035156
      ],
      "min": [
        -0.4783024787902832,
        -0.6828465461730957,
        -0.00016529113054275513
      ],
      "type": "VEC3"
    },
    {
      "bufferView": 1,
      "byteOffset": 649704,
      "componentType": 5126,
      "count": 4922,
      "max": [
        0.25893306732177734,
        1.1848247051239014,
        0.00019097328186035156
      ],
      "min": [
        -0.4783024787902832,
        -0.716134786605835,
        -0.00016529113054275513
      ],
      "type": "VEC3"
    },
    {
      "bufferView": 1,
      "byteOffset": 708768,
      "componentType": 5126,
      "count": 4922,
      "max": [
        0.2503662109375,
        1.2247893810272217,
        0.00019097328186035156
      ],
      "min": [
        -0.4783024787902832,
        -0.7428820133209229,
        -0.00016529113054275513
      ],
      "type": "VEC3"
    },
    {
      "bufferView": 1,
      "byteOffset": 767832,
      "componentType": 5126,
      "count": 4922,
      "max": [
        0.23730707168579102,
        1.2247893810272217,
        0.00019097328186035156
      ],
      "min": [
        -0.4783024787902832,
        -0.7428820133209229,
        -0.00016529113054275513
      ],
      "type": "VEC3"
    },
    {
      "bufferView": 1,
      "byteOffset": 826896,
      "componentType": 5126,
      "count": 4922,
      "max": [
        0.22616815567016602,
        1.2247893810272217,
        0.00019097328186035156
      ],
      "min": [
        -0.4783024787902832,
        -0.7428820133209229,
        -0.00016529113054275513
      ],
      "type": "VEC3"
    },
    {
      "bufferView": 1,
      "byteOffset": 885960,
      "componentType": 5126,
      "count": 4922,
      "max": [
        0.21600627899169922,
        1.2247893810272217,
        0.00019097328186035156
      ],
      "min": [
        -0.4783024787902832,
        -0.5928819179534912,
        -0.00016529113054275513
      ],
      "type": "VEC3"
    },
    {
      "bufferView": 1,
      "byteOffset": 945024,
      "componentType": 5126,
      "count": 4922,
      "max": [
        0.20071029663085938,
        0.9347894191741943,
        0.00019097328186035156
      ],
      "min": [
        -0.4783024787902832,
        -0.5028820037841797,
        -0.00016529113054275513
      ],
      "type": "VEC3"
    },
    {
      "bufferView": 1,
      "byteOffset": 1004088,
      "componentType": 5126,
      "count": 4922,
      "max": [
        0.2067887783050537,
        0.7881429195404053,
        0.00019097328186035156
      ],
      "min": [
        -0.4783024787902832,
        -0.3962397575378418,
        -0.00016529113054275513
      ],
      "type": "VEC3"
    },
    {
      "bufferView": 1,
      "byteOffset": 1063152,
      "componentType": 5126,
      "count": 4922,
      "max": [
        0.21482229232788086,
        0.771007776260376,
        0.00019097328186035156
      ],
      "min": [
        -0.4783024787902832,
        -0.4260234832763672,
        -0.00016529113054275513
      ],
      "type": "VEC3"
    },
    {
      "bufferView": 1,
      "byteOffset": 1122216,
      "componentType": 5126,
      "count": 4922,
      "max": [
        0.2207193374633789,
        0.6801397800445557,
        0.00019097328186035156
      ],
      "min": [
        -0.4783024787902832,
        -0.43399906158447266,
        -0.00016529113054275513
      ],
      "type": "VEC3"
    },
    {
      "bufferView": 1,
      "byteOffset": 1181280,
      "componentType": 5126,
      "count": 4922,
      "max": [
        0.2466750144958496,
        0.5054171085357666,
        0.00019097328186035156
      ],
      "min": [
        -0.23830270767211914,
        -0.39028310775756836,
        -0.00016529113054275513
      ],
      "type": "VEC3"
    },
    {
      "bufferView": 1,
      "byteOffset": 1240344,
      "componentType": 5126,
      "count": 4922,
      "max": [
        0.24007129669189453,
        0.31797361373901367,
        0.00019097328186035156
      ],
      "min": [
        -0.13400840759277344,
        -0.31343984603881836,
        -0.00016529113054275513
      ],
      "type": "VEC3"
    },
    {
      "bufferView": 1,
      "byteOffset": 1299408,
      "componentType": 5126,
      "count": 4922,
      "max": [
        0.20980024337768555,
        0.18150806427001953,
        0.00019097328186035156
      ],
      "min": [
        -0.10372352600097656,
        -0.22618579864501953,
        -0.00016529113054275513
      ],
      "type": "VEC3"
    },
    {
      "bufferView": 0,
      "componentType": 5125,
      "count": 29496,
      "type": "SCALAR"
    },
    {
      "bufferView": 2,
      "componentType": 5126,
      "count": 22,
      "max": [
        0.875
      ],
      "min": [
        0.0
      ],
      "type": "SCALAR"
    },
    {
      "bufferView": 2,
      "byteOffset": 88,
      "componentType": 5126,
      "count": 462,
      "type": "SCALAR"
    }
  ],
  "animations": [
    {
      "channels": [
        {
          "sampler": 0,
          "target": {
            "node": 4,
            "path": "weights"
          }
        }
      ],
      "name": "GltfAnimation 0",
      "samplers": [
        {
          "input": 24,
          "interpolation": "LINEAR",
          "output": 25
        }
      ]
    }
  ],
  "asset": {
    "generator": "fab-model-conversion",
    "version": "2.0"
  },
  "bufferViews": [
    {
      "buffer": 0,
      "byteLength": 117984,
      "target": 34963
    },
    {
      "buffer": 0,
      "byteLength": 1358472,
      "byteOffset": 117984,
      "byteStride": 12,
      "target": 34962
    },
    {
      "buffer": 0,
      "byteLength": 1936,
      "byteOffset": 1476456
    }
  ],
  "buffers": [
    {
      "byteLength": 1478392,
      "uri": "scene.bin"
    }
  ],
  "materials": [
    {
      "alphaMode": "BLEND",
      "emissiveFactor": [
        0.8343177719893708,
        0.04428544116591174,
        0.04428544116591174
      ],
      "name": "mesh_0",
      "pbrMetallicRoughness": {
        "baseColorFactor": [
          0.49235525660363555,
          0.26838160199683875,
          0.02236830512103362,
          0.7935764896533174
        ],
        "metallicFactor": 0.0
      }
    }
  ],
  "meshes": [
    {
      "extras": {
        "targetNames": [
          "target_0_0_0",
          "target_0_1_0",
          "target_0_2_0",
          "target_0_3_0",
          "target_0_4_0",
          "target_0_5_0",
          "target_0_6_0",
          "target_0_7_0",
          "target_0_8_0",
          "target_0_9_0",
          "target_0_10_0",
          "target_0_11_0",
          "target_0_12_0",
          "target_0_13_0",
          "target_0_14_0",
          "target_0_15_0",
          "target_0_16_0",
          "target_0_17_0",
          "target_0_18_0",
          "target_0_19_0",
          "target_0_20_0"
        ]
      },
      "name": "mesh_0",
      "primitives": [
        {
          "attributes": {
            "NORMAL": 1,
            "POSITION": 0
          },
          "indices": 23,
          "material": 0,
          "mode": 4,
          "targets": [
            {
              "POSITION": 2
            },
            {
              "POSITION": 3
            },
            {
              "POSITION": 4
            },
            {
              "POSITION": 5
            },
            {
              "POSITION": 6
            },
            {
              "POSITION": 7
            },
            {
              "POSITION": 8
            },
            {
              "POSITION": 9
            },
            {
              "POSITION": 10
            },
            {
              "POSITION": 11
            },
            {
              "POSITION": 12
            },
            {
              "POSITION": 13
            },
            {
              "POSITION": 14
            },
            {
              "POSITION": 15
            },
            {
              "POSITION": 16
            },
            {
              "POSITION": 17
            },
            {
              "POSITION": 18
            },
            {
              "POSITION": 19
            },
            {
              "POSITION": 20
            },
            {
              "POSITION": 21
            },
            {
              "POSITION": 22
            }
          ]
        }
      ],
      "weights": [
        0.0,
        0.0,
        0.0,
        0.0,
        0.0,
        0.0,
        0.0,
        0.0,
        0.0,
        0.0,
        0.0,
        0.0,
        0.0,
        0.0,
        0.0,
        0.0,
        0.0,
        0.0,
        0.0,
        0.0,
        0.0
      ]
    }
  ],
  "nodes": [
    {
      "children": [
        1
      ],
      "matrix": [
        1.0,
        0.0,
        0.0,
        0.0,
        0.0,
        2.220446049250313e-16,
        -1.0,
        0.0,
        0.0,
        1.0,
        2.220446049250313e-16,
        0.0,
        0.0,
        0.0,
        0.0,
        1.0
      ],
      "name": "Sketchfab_model"
    },
    {
      "children": [
        2
      ],
      "name": "root"
    },
    {
      "children": [
        3
      ],
      "matrix": [
        1.0,
        0.0,
        0.0,
        0.0,
        0.0,
        2.220446049250313e-16,
        1.0,
        0.0,
        0.0,
        -1.0,
        2.220446049250313e-16,
        0.0,
        0.0,
        0.0,
        0.0,
        1.0
      ],
      "name": "GLTF_SceneRootNode"
    },
    {
      "children": [
        4
      ],
      "name": "_0",
      "rotation": [
        0.0,
        0.0,
        0.0,
        1.0
      ],
      "scale": [
        1.0,
        1.0,
        1.0
      ],
      "translation": [
        0.0,
        0.0,
        0.0
      ]
    },
    {
      "mesh": 0,
      "name": "mesh_0"
    }
  ],
  "scene": 0,
  "scenes": [
    {
      "name": "Sketchfab_Scene",
      "nodes": [
        0
      ]
    }
  ]
}
